HIERARCHY
ROOT root
{
	OFFSET 0.000000 0.000000 0.000000
	CHANNELS 6 Xposition Yposition Zposition Zrotation Yrotation Xrotation
	JOINT lhip
	{
		OFFSET 0.058581 -0.082280 -0.017664
		CHANNELS 3 Zrotation Yrotation Xrotation
		JOINT lknee
		{
			OFFSET 0.043451 -0.386469 0.008037
			CHANNELS 3 Zrotation Yrotation Xrotation
			JOINT lankle
			{
				OFFSET -0.014790 -0.426874 -0.037428
				CHANNELS 3 Zrotation Yrotation Xrotation
				JOINT ltoe
				{
					OFFSET 0.041054 -0.060286 0.122042
					CHANNELS 3 Zrotation Yrotation Xrotation
					End Site
					{
						OFFSET 0.000000 0.000000 0.000000
					}
				}
			}
		}
	}
	JOINT rhip
	{
		OFFSET -0.060310 -0.090513 -0.013543
		CHANNELS 3 Zrotation Yrotation Xrotation
		JOINT rknee
		{
			OFFSET -0.043257 -0.383688 -0.004843
			CHANNELS 3 Zrotation Yrotation Xrotation
			JOINT rankle
			{
				OFFSET 0.019056 -0.420046 -0.034562
				CHANNELS 3 Zrotation Yrotation Xrotation
				JOINT rtoe
				{
					OFFSET -0.034840 -0.062106 0.130323
					CHANNELS 3 Zrotation Yrotation Xrotation
					End Site
					{
						OFFSET 0.000000 0.000000 0.000000
					}
				}
			}
		}
	}
	JOINT lowerback
	{
		OFFSET 0.004439 0.124404 -0.038385
		CHANNELS 3 Zrotation Yrotation Xrotation
		JOINT upperback
		{
			OFFSET 0.004488 0.137956 0.026820
			CHANNELS 3 Zrotation Yrotation Xrotation
			JOINT chest
			{
				OFFSET -0.002265 0.056032 0.002855
				CHANNELS 3 Zrotation Yrotation Xrotation
				JOINT lowerneck
				{
					OFFSET -0.013390 0.211636 -0.033468
					CHANNELS 3 Zrotation Yrotation Xrotation
					JOINT upperneck
					{
						OFFSET 0.010113 0.088937 0.050410
						CHANNELS 3 Zrotation Yrotation Xrotation
						End Site
						{
							OFFSET 0.000000 0.000000 0.000000
						}
					}
				}
				JOINT lclavicle
				{
					OFFSET 0.071702 0.114000 -0.018898
					CHANNELS 3 Zrotation Yrotation Xrotation
					JOINT lshoulder
					{
						OFFSET 0.122921 0.045205 -0.019046
						CHANNELS 3 Zrotation Yrotation Xrotation
						JOINT lelbow
						{
							OFFSET 0.255332 -0.015649 -0.022946
							CHANNELS 3 Zrotation Yrotation Xrotation
							JOINT lwrist
							{
								OFFSET 0.265709 0.012698 -0.007375
								CHANNELS 3 Zrotation Yrotation Xrotation
								End Site
								{
									OFFSET 0.000000 0.000000 0.000000
								}
							}
						}
					}
				}
				JOINT rclavicle
				{
					OFFSET -0.082954 0.112472 -0.023707
					CHANNELS 3 Zrotation Yrotation Xrotation
					JOINT rshoulder
					{
						OFFSET -0.113228 0.046853 -0.008472
						CHANNELS 3 Zrotation Yrotation Xrotation
						JOINT relbow
						{
							OFFSET -0.260127 -0.014369 -0.031269
							CHANNELS 3 Zrotation Yrotation Xrotation
							JOINT rwrist
							{
								OFFSET -0.269108 0.006794 -0.006027
								CHANNELS 3 Zrotation Yrotation Xrotation
								End Site
								{
									OFFSET 0.000000 0.000000 0.000000
								}
							}
						}
					}
				}
			}
		}
	}
}
MOTION
Frames: 13
Frame Time: 0.033333
-0.077698 -1.897525 0.895858 160.588242 0.218449 89.561997 17.780138 15.432627 -33.476574 -7.693981 11.509395 64.418293 -0.084988 0.366743 -10.987593 0.000000 -0.000000 0.000000 -18.666832 -15.169761 -25.939989 3.006149 -8.645545 53.496805 0.940164 -8.912425 -17.053975 0.000000 -0.000000 0.000000 1.293171 3.470828 28.572123 0.676598 -1.339131 3.568246 0.055924 -2.030042 -1.721677 -2.234472 5.826369 -7.981065 -6.857241 15.213463 -7.561852 -31.751182 -2.131490 12.126641 -40.858713 26.089304 1.819361 -9.587370 -30.803638 19.423186 9.188611 -11.456205 -3.707150 23.657547 12.862316 2.072191 25.025419 13.567200 -8.657805 -57.085418 48.075113 -58.939895 -3.759676 10.795738 6.096469 
-0.074804 -1.799014 0.876770 162.672707 -0.160135 89.236830 23.310857 17.060396 -29.493301 -10.851176 9.449156 53.656293 -2.613728 3.800036 -13.569042 0.000000 -0.000000 0.000000 -21.742540 -15.189695 -21.314158 3.216409 -5.755939 61.263164 4.969084 -10.501792 -18.743051 0.000000 -0.000000 0.000000 -2.573251 4.930592 24.092984 1.126195 -1.651248 3.260120 -0.314354 -2.773295 -0.440558 0.623193 9.799461 -7.158583 -5.692022 14.775017 -2.160613 -27.810674 0.445152 11.329308 -34.606866 26.132562 0.422329 -8.125781 -28.310243 18.051680 7.026606 -11.050143 -2.589846 22.672272 6.837346 -1.007900 29.286001 8.722190 -7.185995 -49.604438 43.193285 -55.658199 2.338673 7.813543 -0.945352 
-0.069841 -1.701635 0.852378 166.867086 1.047784 90.297475 28.486293 18.960602 -29.092838 -14.632311 7.490026 47.116448 -3.380228 6.118465 -15.198896 0.000000 -0.000000 0.000000 -23.275251 -14.552817 -16.393183 3.140533 -6.197133 67.059970 8.105114 -13.133659 -15.703369 0.000000 -0.000000 0.000000 -6.223307 5.879540 18.874114 2.623769 -2.535347 2.562521 -0.133756 -2.980465 0.444818 2.573019 11.583748 -5.195232 -2.675326 12.248311 0.595473 -23.002463 1.814085 10.340702 -29.965718 23.132359 -1.023954 -6.605003 -27.086781 15.066182 11.623459 -9.819998 -5.328330 22.412982 2.165627 -1.694793 33.246826 3.454084 -8.177878 -40.569943 33.273651 -54.510297 5.789453 6.207282 -13.846602 
-0.067995 -1.590888 0.819138 172.404307 2.849412 91.321880 32.263928 17.271761 -30.214235 -14.378163 2.781557 50.635424 -3.636716 5.309685 -21.601603 0.000000 -0.000000 0.000000 -22.941627 -13.594058 -14.538564 5.481024 -6.892298 76.876364 8.379134 -8.826748 -10.517782 0.000000 -0.000000 0.000000 -8.885591 6.091896 17.322939 3.572735 -4.195986 2.419818 0.267326 -3.562407 -0.654639 3.846675 9.972472 -2.626034 -0.204847 9.164337 -2.780178 -20.940494 -0.026767 8.689961 -24.972546 15.880108 -3.025446 -1.799756 -27.912444 6.521072 13.036273 -7.680890 -6.444282 22.179297 0.576026 -1.783543 38.669869 -0.477242 -11.032619 -32.791293 20.157491 -57.301797 10.244339 7.296568 -27.028030 
-0.067359 -1.534144 0.802897 173.188562 3.455497 90.508592 33.861625 14.606159 -26.575759 -17.034285 -1.424078 54.310589 -3.622974 6.407010 -30.400339 0.000000 -0.000000 0.000000 -22.075406 -13.417373 -17.683430 7.486460 -7.590284 84.760541 8.177478 -4.695645 -14.410656 0.000000 -0.000000 0.000000 -10.111078 6.587715 20.954041 3.646872 -4.173347 2.321650 0.769930 -3.418168 -1.183891 5.063808 10.376151 -4.967524 0.925451 5.964056 -3.789606 -22.750440 -3.919195 5.413579 -20.728351 10.628170 -1.050585 0.123790 -30.074255 1.487519 18.403091 -6.960726 -5.637896 24.305246 2.478267 -2.694321 40.412016 -2.940844 -10.369851 -31.925157 16.294781 -61.039138 8.046965 5.412610 -29.926780 
-0.059764 -1.469166 0.790368 173.147047 4.165791 91.884398 34.651627 14.793580 -23.632109 -15.931600 -2.100726 56.473168 -2.394001 7.597151 -35.623403 0.000000 -0.000000 0.000000 -19.271376 -14.287878 -28.461955 3.222361 -11.375953 92.563819 5.732938 -9.045627 -17.897432 0.000000 -0.000000 0.000000 -12.287452 6.172764 24.214466 3.902578 -3.889487 2.174365 1.439925 -4.248684 -1.296213 7.232830 9.949761 -8.366553 3.703353 3.066909 -4.233579 -23.491737 -8.862745 3.777315 -18.868799 1.632023 -1.955731 3.649224 -34.188345 -2.207412 24.685098 -6.225567 -6.698504 25.959895 4.724376 -3.754612 45.071106 -0.750651 -8.076073 -33.880722 15.694344 -62.226661 4.176463 3.291957 -34.426398 
-0.048837 -1.403459 0.789330 174.177533 4.567609 93.303602 35.520644 15.563496 -19.214854 -15.578195 -4.195041 54.718304 -3.216176 6.509503 -38.367625 0.000000 -0.000000 0.000000 -17.025962 -16.963437 -39.077955 -0.069860 -15.085636 93.449213 4.850223 -7.938785 -20.632555 0.000000 -0.000000 0.000000 -12.317756 4.087492 28.420960 3.882897 -4.776153 1.835836 2.196962 -5.576792 -1.935275 7.931068 9.591056 -9.178785 5.750561 1.416348 -3.621890 -24.650751 -14.621425 3.661196 -17.956873 -6.547226 -3.908575 10.079889 -40.246209 -7.398006 22.100194 -6.027934 -7.526468 26.643128 8.487591 -2.423916 46.631433 2.402125 -7.278072 -35.517266 17.416953 -61.079437 5.262407 3.190641 -35.509501 
-0.033834 -1.331265 0.796207 175.785091 4.723495 95.474258 36.452431 15.408835 -13.678944 -14.767833 -6.233312 49.369563 -4.907544 4.538379 -38.170311 0.000000 -0.000000 0.000000 -17.310973 -18.077297 -47.954271 -1.551240 -19.901453 89.191145 5.196987 -5.727073 -22.878455 0.000000 -0.000000 0.000000 -10.649653 0.823117 30.801217 4.711080 -5.539845 2.626454 2.825837 -6.346946 -2.838785 7.278324 10.166431 -10.886431 5.986101 -0.851518 -2.026428 -23.889989 -19.673345 1.753291 -21.656927 -17.011124 -3.369141 17.504992 -43.498211 -13.233177 22.532680 -6.011001 -7.386283 27.317677 11.230219 -1.044798 44.583340 5.294257 -6.279693 -39.908754 22.221682 -60.501917 3.113480 3.857200 -34.809115 
-0.015423 -1.251821 0.810191 176.816871 4.251382 99.130919 36.109009 13.906494 -8.449342 -12.076174 -6.653226 42.060744 -7.820740 3.053398 -32.615697 0.000000 -0.000000 0.000000 -18.754369 -19.821358 -55.641663 -2.905876 -23.942987 81.201599 5.780272 -4.492624 -22.863456 0.000000 -0.000000 0.000000 -7.802108 -3.172108 31.401286 5.716785 -5.805204 1.037389 3.503837 -6.992639 -2.240218 5.580892 10.650622 -12.935355 5.128290 -1.405540 -1.225429 -20.830063 -20.332933 0.000512 -31.711217 -26.690699 -0.937703 27.345987 -49.874161 -19.146081 23.442623 -5.429697 -9.544538 26.343035 11.139927 -1.206844 43.808836 11.656677 -5.184604 -48.820593 29.757745 -60.374624 -2.083350 3.672690 -26.749285 
0.010042 -1.142064 0.832190 175.747850 2.274646 103.057175 31.471405 9.386821 -2.972863 -6.505206 -5.483266 36.786045 -10.147622 5.203571 -19.968061 0.000000 -0.000000 0.000000 -21.750983 -22.628531 -59.592436 -2.248917 -28.857240 67.510482 7.034413 -2.342864 -16.662851 0.000000 -0.000000 0.000000 -2.283965 -6.932677 29.588012 6.474964 -5.476670 1.990135 3.450812 -6.702479 -2.432552 2.481444 10.448781 -15.665848 0.416444 -0.780342 -1.761958 -20.351000 -19.841233 -0.509988 -38.614848 -28.766644 4.071238 37.293764 -64.382144 -21.981641 21.523398 -9.365776 -7.583423 26.356471 13.776331 -0.055018 39.905346 19.315885 -3.982850 -65.829951 39.538690 -65.034313 -6.278764 7.100693 -10.059291 
0.032646 -1.046871 0.844461 172.541201 0.714551 104.856141 25.862974 5.199679 0.318356 -5.146704 -5.241450 37.868990 -6.050863 8.958752 -11.798788 0.000000 -0.000000 0.000000 -22.889329 -23.505374 -59.625281 -0.175149 -30.234263 60.062892 9.618163 -1.524117 -8.529999 0.000000 -0.000000 0.000000 2.918505 -8.774582 28.212951 5.946111 -3.412383 2.766851 3.027180 -5.200598 -2.378618 -0.595145 6.211779 -16.742047 -3.398610 1.947638 -2.327798 -23.037618 -18.943611 0.256547 -39.947842 -23.566991 8.415357 43.091814 -75.296805 -23.841393 21.799160 -12.477177 -3.427164 26.495331 18.640073 1.523886 32.129796 22.977274 -3.063669 -75.264239 46.738413 -68.167400 -9.026442 11.871738 9.551845 
0.061882 -0.949904 0.847127 167.246013 0.092631 105.441735 19.793054 3.770851 0.582603 -8.400083 -4.544841 48.135198 -3.609627 7.433917 -13.401290 0.000000 -0.000000 0.000000 -21.069899 -20.909820 -59.018033 -0.638534 -28.164620 61.236498 7.376675 -3.423524 -7.657920 0.000000 -0.000000 0.000000 6.509346 -8.662527 29.611298 4.844726 0.588205 1.809065 2.459342 -2.283248 -1.924554 -1.581335 2.392447 -15.927182 -6.096173 2.980596 -3.520185 -26.277487 -16.732548 1.297936 -40.157636 -15.586052 12.076880 20.126355 -80.466547 -1.282697 21.597371 -13.384115 -3.524099 26.466106 22.686663 3.122249 22.584825 24.268634 -4.074730 -66.327539 53.094681 -56.187828 -13.812453 19.755823 25.003670 
0.097384 -0.855544 0.842490 161.075214 -0.264985 105.464095 13.310096 4.674108 -4.642624 -9.250151 1.503291 65.154055 -3.411811 10.086345 -15.147382 0.000000 -0.000000 0.000000 -17.664201 -14.926907 -55.360552 -1.860215 -21.340769 61.585601 0.886911 -8.117442 -19.897767 0.000000 -0.000000 0.000000 8.212960 -6.567134 32.870875 2.321988 4.507858 0.451484 1.738521 0.972585 -0.841684 -1.580594 -1.424337 -15.525620 -5.845571 2.308797 -7.482520 -28.399871 -14.971660 2.515649 -37.258871 -5.662058 14.147264 -9.445255 -75.112421 27.574252 20.059061 -13.404702 -4.716851 25.443200 27.010660 4.951314 15.169521 22.820157 -6.293187 -41.710125 48.649393 -31.039482 -14.822151 23.777196 33.061323 
